PathFileType	4	(X/Y/Z)	RBDS018\RBDS018runT25.trc
DataRate	CameraRate	NumFrames	NumMarkers	Units	OrigDataRate	OrigDataStartFrame	OrigNumFrames
150.000000	150.000000	5	33	mm	150.000000	0	4500
Frame#	Time	L.ASIS			L.Heel.Bottom			L.Heel.Lateral			L.Heel.Top			L.Iliac.Crest			L.MT1			L.MT5			L.PSIS			L.Shank.Bottom.Lateral			L.Shank.Bottom.Medial			L.Shank.Top.Lateral			L.Shank.Top.Medial			L.Thigh.Bottom.Lateral			L.Thigh.Bottom.Medial			L.Thigh.Top.Lateral			L.Thigh.Top.Medial			R.ASIS			R.ASY			R.Heel.Bottom			R.Heel.Lateral			R.Heel.Top			R.Iliac.Crest			R.MT1			R.MT5			R.PSIS			R.Shank.Bottom.Lateral			R.Shank.Bottom.Medial			R.Shank.Top.Lateral			R.Shank.Top.Medial			R.Thigh.Bottom.Lateral			R.Thigh.Bottom.Medial			R.Thigh.Top.Lateral			R.Thigh.Top.Medial			
		X1	Y1	Z1	X2	Y2	Z2	X3	Y3	Z3	X4	Y4	Z4	X5	Y5	Z5	X6	Y6	Z6	X7	Y7	Z7	X8	Y8	Z8	X9	Y9	Z9	X10	Y10	Z10	X11	Y11	Z11	X12	Y12	Z12	X13	Y13	Z13	X14	Y14	Z14	X15	Y15	Z15	X16	Y16	Z16	X17	Y17	Z17	X18	Y18	Z18	X19	Y19	Z19	X20	Y20	Z20	X21	Y21	Z21	X22	Y22	Z22	X23	Y23	Z23	X24	Y24	Z24	X25	Y25	Z25	X26	Y26	Z26	X27	Y27	Z27	X28	Y28	Z28	X29	Y29	Z29	X30	Y30	Z30	X31	Y31	Z31	X32	Y32	Z32	X33	Y33	Z33	

1	0	2208.817484655209	1016.240932489347	908.4444749431168	1688.126667185532	107.7236786524966	974.2530170458119	1721.330939026456	104.1884059867286	927.9053936865438	1715.284249361	150.0127046388134	969.7756744819908	2149.003432709646	1093.041411360997	863.5320434805004	1892.984182728836	40.2250827283587	1026.424296922547	1870.535663598502	47.4813628923016	912.2135143662152	2034.787810868632	1047.073981982458	970.0868856944505	1821.612419423232	229.6869678985821	903.5599393334394	1794.266995049764	253.5970398886797	939.9369329359329	1856.718086514145	298.7758937422784	880.1380516216381	1832.940555642364	326.3053082921812	919.17017642428	2056.528513719732	624.4372777720139	847.9964449746712	1998.71414109749	639.3166366376946	889.6283600692892	2071.388319917832	731.9600538983324	832.4421274401727	2016.094968279095	745.9632633581876	872.4695014743668	2212.140601654059	1019.12534112934	1135.289444620347	2129.261603306566	156.4233277614518	1066.320696368344	1955.90816094313	250.7285959556004	1044.593716419722	1979.33188252629	247.3778677231149	1083.259514636104	1998.712876832559	278.2245990698577	1047.278669745578	2146.24498116666	1093.485069717642	1170.388459029009	2125.923125980094	105.5261158117404	1018.010825915902	2096.953128939607	122.5759210948003	1124.23418754137	2035.903581565311	1046.493170841836	1080.320956031379	2116.669285788373	324.0000034571489	1127.152397752246	2087.458125971797	356.9274783063641	1093.618610638658	2163.453536953968	388.0305959308616	1146.230998079761	2134.91700803907	418.7219081512417	1113.034461267247	2313.49727963261	639.1239727303629	1188.387695599586	2258.64985912125	612.3647648029131	1149.27888516544	2255.133449942158	730.8350010079546	1208.973651960816	2201.693375751782	703.6095339426569	1176.354194544823	
2	0.006666666666666667	2211.438309071915	1020.762404317971	909.2328811682479	1678.232439058571	118.2808098140657	975.4173165813935	1710.926109789523	113.0965285849952	928.9941824634736	1707.405073775529	158.9750725149344	970.9179530091145	2153.284977393912	1098.496741928941	863.7278868578381	1878.185612880519	40.0791218466824	1026.717341519749	1855.973833087363	48.34522156956082	912.4958866884991	2037.270773066898	1052.475040820407	968.8212255202139	1811.750607702755	236.9155233840849	905.3052719773663	1784.950692962869	260.1195091741299	942.3431084298733	1846.305333854197	306.5184835927751	882.4104802889245	1823.142714163888	333.253578443711	922.2421414338382	2049.939566273319	631.2757257985428	849.7285407272958	1992.98589779648	647.8166604908952	891.9810680281672	2067.718446740265	738.1573686856839	833.6993250288041	2013.236435367312	753.7028505612973	874.2395411345386	2212.978771279354	1025.048016879769	1135.758865750529	2153.062555167387	151.0486694247357	1066.92294508969	1975.179136515764	235.4456528856198	1042.744840438739	1998.106345802435	233.2267372210939	1081.806292712194	2016.349310137109	265.0366754875088	1046.074950415496	2147.128784775145	1099.722150423165	1169.966368636629	2152.822656124162	100.0814410674669	1018.6720546885	2121.540986239478	115.2334902412833	1124.404505961752	2037.456684452085	1052.327105926601	1079.335049707679	2130.319291866083	317.271462515151	1126.875893844053	2099.910953692487	348.3922393319972	1092.764183487131	2173.209285789856	383.5884221214189	1146.333917577229	2143.511480210012	412.5428233164262	1112.468133100847	2314.403542697612	645.2662944005211	1189.428431699009	2259.890586748959	618.4512318077132	1149.875834667012	2255.778076647337	736.8129772686021	1209.686903727967	2202.697401963999	709.6964998523014	1176.353470332134	
3	0.01333333333333333	2214.0622152677	1025.199680134227	910.0379423031764	1668.605101171927	128.9825999673285	976.6316597742014	1700.727719775128	122.1429647102078	930.1137700634731	1699.773501435818	168.0451011825464	972.0660135585788	2157.550166398379	1103.874461013457	863.9442325095096	1863.548177768666	40.11986182555448	1026.98395722789	1841.488503159913	49.38247728245776	912.7767492651124	2039.760537951769	1057.833345954406	967.5955681535996	1802.093153042856	244.1301356410366	906.9887948276614	1775.854028523843	266.6397681346979	944.6920106952218	1836.121717282703	314.2307577174297	884.622890411159	1813.573352531348	340.1868496807539	925.2397728495911	2043.540024084664	638.0612515215277	851.3983826081485	1987.428378971092	656.2254256157764	894.2364125853558	2064.186118453766	744.2975755311594	834.917885870606	2010.49603921657	761.3548187262677	875.9476425549767	2213.830077927524	1030.878622593387	1136.226533844889	2176.898874957677	145.8195861533875	1067.58784550495	1994.636689566488	220.2785742259138	1041.001450233272	2017.0567036686	219.1747100204926	1080.445540141714	2034.135262335683	251.9414213038155	1044.969604483651	2148.034505586638	1105.899521949934	1169.551879718691	2179.722766776055	94.83689531704373	1019.373375166572	2146.188419458932	108.036571615038	1124.625232051681	2039.025027286478	1058.10857890993	1078.366666081909	2144.025240108227	310.5663656987795	1126.668217072913	2112.465589673913	339.8752591034819	1091.968830938075	2183.005016459071	379.1070849852688	1146.471607958031	2152.199606696695	406.3183898548662	1111.932649603101	2315.130625825948	651.232668383588	1190.368477311613	2260.897388601789	624.3601660442997	1150.450294877324	2256.289863753474	742.6534985341091	1210.295035310452	2203.528736542173	715.6405297782984	1176.32071816381	
4	0.02	2216.693156402491	1029.481454672128	910.8777374846662	1659.48221718434	139.9557364221208	977.9425542235856	1690.918864649519	131.4500782056759	931.2941400147861	1692.609685364175	177.3114825603026	973.2287413542786	2161.791503208343	1109.107063888196	864.2036221157916	1849.194132592372	40.50870491146591	1027.207622271428	1827.134251460397	50.74713054989304	913.0611401083178	2042.265743865743	1063.121497649852	966.4442358085391	1792.814309373536	251.3115471186886	908.5583345503738	1767.162622291619	273.1484707460186	946.9346435587275	1826.365055594538	321.8808668072467	886.7204107926752	1804.426164466247	347.088195069046	928.0958422965407	2037.491169316409	644.7582643642	852.9464437138579	1982.187815183439	664.4773517518381	896.3043302868242	2060.911044339829	750.3409725974783	836.0574248701588	2007.976345055636	768.855284975269	877.5319873135555	2214.707681427991	1036.534289888256	1136.690761479039	2200.82892326848	140.9023356290713	1068.370817645001	2014.49534211226	205.3400260441383	1039.445696261816	2036.383373540904	205.3243135183153	1079.251227637658	2052.242289527248	239.0314410735	1044.039272339939	2148.986500157454	1111.964248917064	1169.155034456467	2206.66059042962	90.01645946259707	1020.155756893584	2170.987131172527	101.1546847494878	1124.945392101033	2040.624896454292	1063.80358678074	1077.432989916958	2157.867574706594	303.9136640962156	1126.587844887855	2125.238432057645	331.3981672473355	1091.289203023347	2192.899761635304	374.5533196590209	1146.679340684898	2161.08198040521	400.0076268282585	1111.466231235727	2315.502022040173	656.8495683066764	1191.13065530932	2261.45332104513	629.9258064124269	1150.978611838348	2256.536524731509	748.2183955395064	1210.717301477906	2204.025986964844	721.306917634854	1176.228134594335	
5	0.02666666666666667	2219.328945168756	1033.546081275702	911.7662706376236	1651.054012338482	151.2799960095155	979.3833339938232	1681.649712591051	141.1010728653607	932.5571117980498	1686.084752340539	186.8280484979345	974.4121922519154	2165.995080194944	1114.133331197897	864.5249091933238	1835.229018624249	41.37659633784513	1027.377737716493	1812.971287381833	52.56555647302765	913.3565610226339	2044.78908242033	1068.312525117665	965.3941746479011	1784.059338828501	258.4343520885345	909.9735352137993	1759.024833657278	279.6329129397507	949.0272565178608	1817.203703270188	329.4304440478451	888.655269366203	1795.861428943831	353.9364543645451	930.748273323726	2031.933796574207	651.3240217156805	854.3239985215904	1977.38975567125	672.5038850474992	898.1118865126911	2057.995559973833	756.2439926582751	837.0844639848152	2005.762802191008	776.139506024402	878.9406811282149	2215.619191832376	1041.937540697017	1137.149652689939	2224.860677762702	136.4410663646429	1069.314337914835	2034.902797677127	190.75127289307	1038.140180327206	2056.224503636218	191.7856648510182	1078.281748218588	2070.78705338711	226.4068938180068	1043.345134980723	2150.003256755064	1117.859554319115	1168.78725955037	2233.630452085803	85.81666827340179	1021.047896006992	2195.979900789299	94.74003198467936	1125.399978455577	2042.265927564915	1069.376948276936	1076.548770901589	2171.896787248931	297.3500531634414	1126.680659005757	2138.308357551231	322.9937595619825	1090.772253746247	2202.932025163311	369.9094173594376	1146.986506207475	2170.227914360201	393.5895592579648	1111.104042154318	2315.375079955352	661.9625011028061	1191.66384398452	2261.389562919779	635.0034824784865	1151.441814646173	2256.411008149178	753.381157294718	1210.899403836367	2204.06163838397	726.5743421563135	1176.056841841686	
